<svg width="20" height="21" viewBox="0 0 20 21" fill="none" xmlns="http://www.w3.org/2000/svg">
<path d="M12.125 0.363985C11.9969 0.519664 11.9184 0.710186 11.8997 0.910934C11.881 1.11168 11.9229 1.31343 12.02 1.49011C12.7788 2.8833 13.1751 4.44493 13.1724 6.03136C13.1724 11.3089 8.87 15.5824 3.5675 15.5824C2.87581 15.5824 2.2025 15.5102 1.55544 15.3724C1.35708 15.3295 1.15047 15.3459 0.961401 15.4197C0.772329 15.4934 0.609176 15.6212 0.492313 15.7872C0.368952 15.9597 0.306059 16.1682 0.313417 16.3801C0.320776 16.5921 0.397973 16.7957 0.533 16.9592C1.56242 18.2237 2.86105 19.2426 4.33422 19.9415C5.80739 20.6404 7.41796 21.0017 9.0485 20.9991C15.0991 20.9991 20 16.1245 20 10.1185C20 5.59824 17.2254 1.72111 13.2747 0.0778601C13.078 -0.00531065 12.8595 -0.0223811 12.6522 0.0292131C12.4448 0.0808073 12.2599 0.19828 12.125 0.363985V0.363985Z" fill="#333333"/>
<path d="M6.83087 4.13076C6.81205 4.07392 6.77579 4.02446 6.72725 3.9894C6.67872 3.95435 6.62036 3.93548 6.56049 3.93548C6.50062 3.93548 6.44227 3.95435 6.39373 3.9894C6.34519 4.02446 6.30894 4.07392 6.29012 4.13076L5.78218 5.65589C5.55512 6.33576 5.02224 6.86864 4.34237 7.0957L2.81724 7.60364C2.7604 7.62246 2.71094 7.65871 2.67588 7.70725C2.64083 7.75579 2.62196 7.81414 2.62196 7.87401C2.62196 7.93389 2.64083 7.99224 2.67588 8.04077C2.71094 8.08931 2.7604 8.12557 2.81724 8.14439L4.34237 8.65232C4.67768 8.76404 4.98236 8.95231 5.23228 9.20223C5.48219 9.45214 5.67046 9.75683 5.78218 10.0921L6.29012 11.6173C6.30894 11.6741 6.34519 11.7236 6.39373 11.7586C6.44227 11.7937 6.50062 11.8125 6.56049 11.8125C6.62036 11.8125 6.67872 11.7937 6.72725 11.7586C6.77579 11.7236 6.81205 11.6741 6.83087 11.6173L7.3388 10.0921C7.45052 9.75683 7.63879 9.45214 7.88871 9.20223C8.13862 8.95231 8.4433 8.76404 8.77861 8.65232L10.3037 8.14439C10.3606 8.12557 10.41 8.08931 10.4451 8.04077C10.4802 7.99224 10.499 7.93389 10.499 7.87401C10.499 7.81414 10.4802 7.75579 10.4451 7.70725C10.41 7.65871 10.3606 7.62246 10.3037 7.60364L8.77861 7.0957C8.4433 6.98398 8.13862 6.79571 7.88871 6.5458C7.63879 6.29588 7.45052 5.9912 7.3388 5.65589L6.83087 4.13076V4.13076ZM2.8028 0.128949C2.78985 0.091577 2.76557 0.0591709 2.73334 0.0362359C2.70112 0.0133008 2.66255 0.000976562 2.62299 0.000976562C2.58344 0.000976563 2.54487 0.0133008 2.51264 0.0362359C2.48041 0.0591709 2.45614 0.091577 2.44318 0.128949L2.10455 1.14482C1.95362 1.59895 1.59793 1.95464 1.1438 2.10557L0.12793 2.4442C0.090558 2.45716 0.0581514 2.48143 0.0352163 2.51366C0.0122813 2.54589 -4.29153e-05 2.58446 -4.29153e-05 2.62401C-4.29153e-05 2.66357 0.0122813 2.70214 0.0352163 2.73436C0.0581514 2.76659 0.090558 2.79087 0.12793 2.80382L1.1438 3.14245C1.3676 3.2169 1.57096 3.3425 1.73773 3.50927C1.90451 3.67604 2.0301 3.8794 2.10455 4.1032L2.44318 5.11907C2.45614 5.15645 2.48041 5.18885 2.51264 5.21179C2.54487 5.23472 2.58344 5.24705 2.62299 5.24705C2.66255 5.24705 2.70112 5.23472 2.73334 5.21179C2.76557 5.18885 2.78985 5.15645 2.8028 5.11907L3.14143 4.1032C3.21588 3.8794 3.34147 3.67604 3.50825 3.50927C3.67502 3.3425 3.87838 3.2169 4.10218 3.14245L5.11805 2.80382C5.15543 2.79087 5.18783 2.76659 5.21077 2.73436C5.2337 2.70214 5.24603 2.66357 5.24603 2.62401C5.24603 2.58446 5.2337 2.54589 5.21077 2.51366C5.18783 2.48143 5.15543 2.45716 5.11805 2.4442L4.10218 2.10557C3.64805 1.95464 3.29237 1.59895 3.14143 1.14482L2.8028 0.130261V0.128949Z" fill="#333333"/>
</svg>
