<svg width="20" height="20" viewBox="0 0 20 20" fill="none" xmlns="http://www.w3.org/2000/svg">
<path d="M4.66675 15.3237H5.16675V14.8237H4.66675V15.3237ZM4.66675 19.3211H4.16675C4.16675 19.5105 4.27372 19.6836 4.44307 19.7683C4.61242 19.853 4.8151 19.8348 4.96662 19.7212L4.66675 19.3211ZM10.0001 15.3237V14.8237H9.8335L9.70021 14.9237L10.0001 15.3237ZM6.00008 5.49652H5.50008V6.49652H6.00008V5.49652ZM14.0001 6.49652H14.5001V5.49652H14.0001V6.49652ZM6.00008 9.49392H5.50008V10.4939H6.00008V9.49392ZM11.3334 10.4939H11.8334V9.49392H11.3334V10.4939ZM4.16675 15.3237V19.3211H5.16675V15.3237H4.16675ZM4.96662 19.7212L10.3 15.7238L9.70021 14.9237L4.36687 18.9211L4.96662 19.7212ZM10.0001 15.8237H18.0001V14.8237H10.0001V15.8237ZM18.0001 15.8237C19.0132 15.8237 19.8334 15.0046 19.8334 13.9913H18.8334C18.8334 14.4517 18.4616 14.8237 18.0001 14.8237V15.8237ZM19.8334 13.9913V1.99913H18.8334V13.9913H19.8334ZM19.8334 1.99913C19.8334 0.985809 19.0132 0.166687 18.0001 0.166687V1.16669C18.4616 1.16669 18.8334 1.53873 18.8334 1.99913H19.8334ZM18.0001 0.166687H2.00008V1.16669H18.0001V0.166687ZM2.00008 0.166687C0.986926 0.166687 0.166748 0.985809 0.166748 1.99913H1.16675C1.16675 1.53873 1.53857 1.16669 2.00008 1.16669V0.166687ZM0.166748 1.99913V13.9913H1.16675V1.99913H0.166748ZM0.166748 13.9913C0.166748 15.0046 0.986926 15.8237 2.00008 15.8237V14.8237C1.53857 14.8237 1.16675 14.4517 1.16675 13.9913H0.166748ZM2.00008 15.8237H4.66675V14.8237H2.00008V15.8237ZM6.00008 6.49652H14.0001V5.49652H6.00008V6.49652ZM6.00008 10.4939H11.3334V9.49392H6.00008V10.4939Z" fill="#333333"/>
</svg>
