<svg width="20" height="20" viewBox="0 0 20 20" fill="none" xmlns="http://www.w3.org/2000/svg">
<path fill-rule="evenodd" clip-rule="evenodd" d="M7.92542 0.666687L7.81075 1.24896L7.37209 3.37958C6.67076 3.6474 6.03475 4.02719 5.46008 4.47756L3.31608 3.76068L2.74009 3.58213L2.44143 4.09646L0.965413 6.56415L0.666748 7.07855L1.10409 7.46096L2.76276 8.87201C2.70276 9.2411 2.62543 9.60617 2.62543 9.99392C2.62543 10.3817 2.70276 10.7468 2.76276 11.1159L1.10409 12.527L0.666748 12.9094L0.965413 13.4237L2.44143 15.8915L2.74009 16.4071L3.31608 16.2272L5.46008 15.5104C6.03475 15.9607 6.67076 16.3404 7.37209 16.6083L7.81075 18.7389L7.92542 19.3212H12.0734L12.1894 18.7389L12.6268 16.6083C13.3281 16.3404 13.9641 15.9607 14.5388 15.5104L16.6828 16.2272L17.2587 16.4071L17.5588 15.8915L19.0334 13.4237L19.3334 12.9094L18.8948 12.527L17.2361 11.1159C17.2974 10.7468 17.3734 10.3817 17.3734 9.99392C17.3734 9.60617 17.2974 9.2411 17.2361 8.87201L18.8948 7.46096L19.3334 7.07855L19.0334 6.56415L17.5588 4.09646L17.2587 3.58213L16.6828 3.76068L14.5388 4.47756C13.9641 4.02719 13.3281 3.6474 12.6268 3.37958L12.1894 1.24896L12.0734 0.666687H7.92542Z" stroke="#333333" stroke-linecap="square" stroke-linejoin="round"/>
<path fill-rule="evenodd" clip-rule="evenodd" d="M12.6663 9.99392C12.6663 11.465 11.4716 12.6589 9.99959 12.6589C8.52759 12.6589 7.33293 11.465 7.33293 9.99392C7.33293 8.52288 8.52759 7.32904 9.99959 7.32904C11.4716 7.32904 12.6663 8.52288 12.6663 9.99392Z" stroke="#333333" stroke-linecap="square" stroke-linejoin="round"/>
</svg>
