<svg width="21" height="21" viewBox="0 0 21 21" fill="none" xmlns="http://www.w3.org/2000/svg">
<path d="M10.5 4.97771C7.4501 4.97771 4.97768 7.45013 4.97768 10.4984C4.97768 13.5483 7.4501 16.0208 10.5 16.0208C13.5499 16.0208 16.0224 13.5483 16.0224 10.4984C16.0224 7.45013 13.5499 4.97771 10.5 4.97771ZM9.31221 3.97201H11.6895C11.7994 3.97201 11.9011 3.91787 11.9651 3.82763C12.0274 3.73904 12.0422 3.62255 12.0045 3.51919L10.815 0.300288C10.7658 0.167397 10.6411 0.0804443 10.5 0.0804443C10.3589 0.0804443 10.2342 0.169038 10.185 0.300288L8.99557 3.52083C8.95784 3.62419 8.9726 3.73904 9.03495 3.82927C9.09893 3.91951 9.20229 3.97201 9.31221 3.97201ZM15.9567 6.72498C16.0191 6.78896 16.106 6.82341 16.193 6.82341C16.2127 6.82341 16.2324 6.82177 16.2521 6.81849C16.3603 6.7988 16.4506 6.72826 16.4982 6.62818L17.9353 3.50935C17.9944 3.38138 17.9665 3.23208 17.8681 3.13201C17.768 3.03193 17.6171 3.00568 17.4891 3.0631L14.3719 4.50193C14.2718 4.54787 14.2013 4.63974 14.1816 4.74802C14.1619 4.8563 14.198 4.96623 14.2735 5.04498L15.9567 6.72498ZM20.7014 10.1851L17.4792 8.99724C17.3759 8.95951 17.261 8.97427 17.1708 9.03662C17.0806 9.09896 17.0281 9.20068 17.0281 9.3106L17.0297 11.6879C17.0297 11.7978 17.0839 11.9011 17.1741 11.9635C17.2315 12.0012 17.2988 12.0226 17.366 12.0226C17.4054 12.0226 17.4448 12.016 17.4825 12.0012L20.7047 10.8134C20.836 10.7658 20.9246 10.6395 20.9246 10.4968C20.9213 10.359 20.8343 10.2343 20.7014 10.1851ZM16.4982 14.3719C16.4755 14.3227 16.4413 14.2797 16.3984 14.2466C16.3556 14.2135 16.3054 14.1912 16.2521 14.1816C16.1438 14.1636 16.0322 14.198 15.9567 14.2751L14.2751 15.9568C14.198 16.0339 14.1619 16.1454 14.1816 16.2537C14.2013 16.3604 14.2718 16.4539 14.3719 16.4998L17.4907 17.937C17.535 17.9583 17.5826 17.9665 17.6318 17.9665C17.7188 17.9665 17.8041 17.9321 17.8681 17.8681C17.9682 17.768 17.9944 17.6187 17.9353 17.4908L16.4982 14.3719ZM11.6878 17.0265L9.31057 17.0281C9.20065 17.0281 9.09893 17.0822 9.03659 17.1725C8.97425 17.2627 8.95948 17.3776 8.99557 17.4793L10.185 20.7015C10.2342 20.8327 10.3589 20.9213 10.5 20.9213C10.6411 20.9213 10.7658 20.8327 10.815 20.7015L12.0045 17.4793C12.0422 17.3759 12.0274 17.2611 11.9651 17.1708C11.9011 17.0806 11.7994 17.0265 11.6878 17.0265ZM5.04331 14.2751C4.9662 14.198 4.85628 14.1636 4.748 14.1816C4.63971 14.2013 4.54784 14.2719 4.5019 14.3719L3.06471 17.4908C3.00565 17.6187 3.03354 17.7697 3.13362 17.8681C3.18203 17.9166 3.2442 17.9491 3.3117 17.9612C3.37919 17.9732 3.44876 17.9642 3.51096 17.9354L6.62979 16.4965C6.67899 16.4739 6.72198 16.4397 6.75511 16.3968C6.78825 16.354 6.81054 16.3038 6.8201 16.2504C6.83979 16.1422 6.8037 16.0322 6.72659 15.9551L5.04331 14.2751ZM3.63729 12.0242C3.70456 12.0242 3.77182 12.0029 3.82925 11.9635C3.91948 11.9011 3.97362 11.7978 3.97362 11.6879L3.97198 9.3106C3.97199 9.25658 3.95895 9.20335 3.93398 9.15544C3.90901 9.10754 3.87283 9.06637 3.82854 9.03545C3.78424 9.00452 3.73313 8.98475 3.67956 8.97781C3.62598 8.97087 3.57152 8.97698 3.52081 8.9956L0.29862 10.1851C0.234104 10.2087 0.178407 10.2516 0.13906 10.3079C0.0997131 10.3643 0.0786133 10.4313 0.0786133 10.5001C0.0786133 10.5688 0.0997131 10.6358 0.13906 10.6922C0.178407 10.7485 0.234104 10.7914 0.29862 10.8151L3.52245 12.0029C3.56018 12.0176 3.59792 12.0242 3.63729 12.0242ZM4.50354 6.62818C4.52626 6.67734 4.56052 6.72029 4.6034 6.75337C4.64627 6.78645 4.69651 6.80869 4.74982 6.81819C4.80314 6.82769 4.85796 6.82418 4.90963 6.80795C4.9613 6.79172 5.00828 6.76326 5.04659 6.72498L6.72659 5.04333C6.8037 4.96458 6.83815 4.85466 6.81846 4.74638C6.79878 4.63974 6.72823 4.54787 6.62815 4.50193L3.50768 3.06474C3.37971 3.00568 3.23042 3.03357 3.13034 3.13365C3.03026 3.23373 3.00401 3.38302 3.06307 3.51099L4.50354 6.62818Z" fill="#FCC21B"/>
</svg>
